<svg width="40" height="40" viewBox="0 0 40 40" fill="none" xmlns="http://www.w3.org/2000/svg">
<path d="M9.11962 6.90422L7.79558 7.28917C6.99015 7.529 6.41395 8.0325 6.067 8.79966C5.72005 9.56682 5.67892 10.3545 5.94361 11.1626L7.99933 17.2688L9.11962 6.90422ZM15.4395 4.2681C14.6193 4.17945 13.8855 4.3956 13.2383 4.91656C12.5911 5.43753 12.2231 6.10812 12.1345 6.92834L11.1673 15.8762L16.3041 5.34223C16.3974 5.1763 16.4901 5.01659 16.5822 4.86309C16.6742 4.70959 16.7904 4.56499 16.9308 4.4293L15.4395 4.2681ZM23.1036 5.24738C22.3405 4.86314 21.566 4.81714 20.78 5.10937C19.9941 5.40161 19.409 5.92929 19.0247 6.69242L10.4218 24.1691C10.0376 24.9323 9.97851 25.7117 10.2445 26.5074C10.5106 27.3031 11.0265 27.8806 11.7923 28.24L22.6085 33.5581C23.3716 33.9423 24.1461 33.9883 24.9321 33.6961C25.718 33.4039 26.3031 32.8762 26.6874 32.113L35.2903 14.6363C35.6745 13.8732 35.7336 13.0938 35.4676 12.2981C35.2015 11.5024 34.6856 10.9249 33.9198 10.5655L23.1036 5.24738ZM17.9791 22.6474C18.4017 22.6931 18.7404 22.8743 18.9953 23.191C19.2503 23.5078 19.3549 23.8774 19.3093 24.2999C19.2636 24.7225 19.0824 25.0612 18.7657 25.3162C18.4489 25.5711 18.0793 25.6757 17.6567 25.6301C17.2342 25.5844 16.8955 25.4032 16.6405 25.0865C16.3856 24.7697 16.281 24.4001 16.3266 23.9776C16.3723 23.555 16.5535 23.2163 16.8702 22.9613C17.187 22.7064 17.5566 22.6018 17.9791 22.6474Z" fill="#F8FAFC"/>
</svg>
