<svg width="37" height="37" viewBox="0 0 37 37" fill="none" xmlns="http://www.w3.org/2000/svg">
<path d="M23.1602 32.3301L14.1602 29.1801L7.18516 31.8801C6.68516 32.0801 6.22266 32.0238 5.79766 31.7113C5.37266 31.3988 5.16016 30.9801 5.16016 30.4551V9.45508C5.16016 9.13008 5.25391 8.84258 5.44141 8.59258C5.62891 8.34258 5.88516 8.15508 6.21016 8.03008L14.1602 5.33008L23.1602 8.48008L30.1352 5.78008C30.6352 5.58008 31.0977 5.63633 31.5227 5.94883C31.9477 6.26133 32.1602 6.68008 32.1602 7.20508V28.2051C32.1602 28.5301 32.0664 28.8176 31.8789 29.0676C31.6914 29.3176 31.4352 29.5051 31.1102 29.6301L23.1602 32.3301ZM21.6602 28.6551V11.1051L15.6602 9.00508V26.5551L21.6602 28.6551Z" fill="#F8FAFC"/>
</svg>
