<svg width="36" height="37" viewBox="0 0 36 37" fill="none" xmlns="http://www.w3.org/2000/svg">
<path d="M18 3.83008C9.72 3.83008 3 10.5501 3 18.8301C3 27.1101 9.72 33.8301 18 33.8301C26.28 33.8301 33 27.1101 33 18.8301C33 10.5501 26.28 3.83008 18 3.83008ZM18 8.33008C20.49 8.33008 22.5 10.3401 22.5 12.8301C22.5 15.3201 20.49 17.3301 18 17.3301C15.51 17.3301 13.5 15.3201 13.5 12.8301C13.5 10.3401 15.51 8.33008 18 8.33008ZM18 29.6301C14.25 29.6301 10.935 27.7101 9 24.8001C9.045 21.8151 15 20.1801 18 20.1801C20.985 20.1801 26.955 21.8151 27 24.8001C25.065 27.7101 21.75 29.6301 18 29.6301Z" fill="white"/>
</svg>
