<svg width="37" height="37" viewBox="0 0 37 37" fill="none" xmlns="http://www.w3.org/2000/svg">
<path d="M15.1727 21.3801L16.4852 17.1051L13.0352 14.3301H17.3102L18.6602 10.1301L20.0102 14.3301H24.2852L20.7977 17.1051L22.1102 21.3801L18.6602 18.7176L15.1727 21.3801ZM9.66016 35.3301V23.7426C8.71016 22.6926 7.97266 21.4926 7.44766 20.1426C6.92266 18.7926 6.66016 17.3551 6.66016 15.8301C6.66016 12.4801 7.82266 9.64258 10.1477 7.31758C12.4727 4.99258 15.3102 3.83008 18.6602 3.83008C22.0102 3.83008 24.8477 4.99258 27.1726 7.31758C29.4976 9.64258 30.6601 12.4801 30.6601 15.8301C30.6601 17.3551 30.3976 18.7926 29.8726 20.1426C29.3476 21.4926 28.6101 22.6926 27.6601 23.7426V35.3301L18.6602 32.3301L9.66016 35.3301ZM18.6602 24.8301C21.1602 24.8301 23.2852 23.9551 25.0352 22.2051C26.7851 20.4551 27.6601 18.3301 27.6601 15.8301C27.6601 13.3301 26.7851 11.2051 25.0352 9.45508C23.2852 7.70508 21.1602 6.83008 18.6602 6.83008C16.1602 6.83008 14.0352 7.70508 12.2852 9.45508C10.5352 11.2051 9.66016 13.3301 9.66016 15.8301C9.66016 18.3301 10.5352 20.4551 12.2852 22.2051C14.0352 23.9551 16.1602 24.8301 18.6602 24.8301Z" fill="#E8EAED"/>
</svg>
