<svg width="36" height="37" viewBox="0 0 36 37" fill="none" xmlns="http://www.w3.org/2000/svg">
<path d="M21.75 27.8301C20.7 27.8301 19.8125 27.4676 19.0875 26.7426C18.3625 26.0176 18 25.1301 18 24.0801C18 23.0301 18.3625 22.1426 19.0875 21.4176C19.8125 20.6926 20.7 20.3301 21.75 20.3301C22.8 20.3301 23.6875 20.6926 24.4125 21.4176C25.1375 22.1426 25.5 23.0301 25.5 24.0801C25.5 25.1301 25.1375 26.0176 24.4125 26.7426C23.6875 27.4676 22.8 27.8301 21.75 27.8301ZM7.5 33.8301C6.675 33.8301 5.96875 33.5363 5.38125 32.9488C4.79375 32.3613 4.5 31.6551 4.5 30.8301V9.83008C4.5 9.00508 4.79375 8.29883 5.38125 7.71133C5.96875 7.12383 6.675 6.83008 7.5 6.83008H9V3.83008H12V6.83008H24V3.83008H27V6.83008H28.5C29.325 6.83008 30.0312 7.12383 30.6187 7.71133C31.2062 8.29883 31.5 9.00508 31.5 9.83008V30.8301C31.5 31.6551 31.2062 32.3613 30.6187 32.9488C30.0312 33.5363 29.325 33.8301 28.5 33.8301H7.5ZM7.5 30.8301H28.5V15.8301H7.5V30.8301Z" fill="#E8EAED"/>
</svg>
