<svg width="393" height="852" viewBox="0 0 393 852" fill="none" xmlns="http://www.w3.org/2000/svg">
<rect width="394" height="852" fill="#1A2D47"/>
<path d="M457.142 82.8057C445.559 137.37 424.483 102.452 363.705 89.5487C302.928 76.6458 200.711 94.0794 212.295 39.5147C223.879 -15.05 279.859 -62.6823 340.636 -49.7795C401.414 -36.8766 468.726 28.241 457.142 82.8057Z" fill="#80F8FE"/>
<path d="M-153.484 456.441C-198.779 423.886 -158.332 418.637 -122.071 368.184C-85.8102 317.731 -60.6537 217.136 -15.3579 249.69C29.9378 282.245 51.028 352.656 14.7669 403.11C-21.4942 453.563 -108.188 488.995 -153.484 456.441Z" fill="#80F8FE"/>
<path d="M156.142 880.806C144.559 935.37 123.483 900.452 62.7052 887.549C1.92765 874.646 -100.289 892.079 -88.7052 837.515C-77.1213 782.95 -21.1412 735.318 39.6363 748.221C100.414 761.123 167.726 826.241 156.142 880.806Z" fill="#80F8FE"/>
<path d="M430.661 469.204C484.515 454.67 414.472 497.447 430.661 557.433C446.85 617.419 508.918 700.484 455.064 715.018C401.21 729.552 363.942 693.69 347.753 633.704C331.564 573.718 376.807 483.738 430.661 469.204Z" fill="#80F8FE"/>
</svg>
