<svg width="393" height="56" viewBox="0 0 393 56" fill="none" xmlns="http://www.w3.org/2000/svg">
<rect x="-1" width="394" height="56" fill="#1A2D47"/>
<path d="M395 -18.796C412.444 34.1869 411 4.9116 401 8.20405C341.984 27.6347 323.596 75.6826 306.151 22.6997C288.707 -30.2832 292.984 -20.8653 352 -40.2959C356 -41.6129 377.556 -71.7788 395 -18.796Z" fill="#80F8FE"/>
<path d="M64 -18C81.4444 34.9829 45.5873 14.079 -13.4283 33.5096C-40.5 -32.5087 6.94438 55.4829 -10.5 2.5C-1.00003 -23 -32.0156 12.9306 27 -6.5C64 -18 64 -18 64 -18Z" fill="#80F8FE"/>
<path d="M158.78 23.9052C158.804 23.0825 158.552 22.4522 158.026 22.0142C157.505 21.5762 156.756 21.3572 155.78 21.3572C155.093 21.3572 154.486 21.4608 153.96 21.668C153.439 21.8692 153.019 22.1503 152.699 22.5114C152.379 22.8665 152.181 23.2719 152.104 23.7276C152.039 24.1005 152.072 24.426 152.202 24.7042C152.332 24.9824 152.53 25.2191 152.797 25.4144C153.069 25.6097 153.377 25.7725 153.72 25.9027C154.069 26.0329 154.424 26.1424 154.785 26.2312L156.419 26.6573C157.07 26.8171 157.691 27.0331 158.283 27.3054C158.875 27.5717 159.387 27.915 159.819 28.3352C160.257 28.7495 160.577 29.2496 160.778 29.8356C160.979 30.4215 161.012 31.1081 160.876 31.8952C160.698 32.9606 160.269 33.8987 159.588 34.7095C158.914 35.5144 158.026 36.1448 156.925 36.6005C155.83 37.0503 154.555 37.2752 153.099 37.2752C151.69 37.2752 150.5 37.0562 149.53 36.6183C148.559 36.1744 147.849 35.5322 147.399 34.6918C146.955 33.8513 146.813 32.8304 146.973 31.6289H150.213C150.148 32.2622 150.252 32.7889 150.524 33.2092C150.802 33.6294 151.202 33.9431 151.722 34.1502C152.243 34.3574 152.847 34.4609 153.534 34.4609C154.25 34.4609 154.898 34.3544 155.478 34.1413C156.058 33.9223 156.531 33.6205 156.898 33.2358C157.271 32.8452 157.499 32.3894 157.582 31.8686C157.665 31.401 157.597 31.0104 157.378 30.6967C157.159 30.383 156.818 30.1226 156.357 29.9155C155.901 29.7024 155.356 29.513 154.723 29.3473L152.752 28.8146C151.326 28.424 150.243 27.8381 149.503 27.0568C148.769 26.2756 148.509 25.2339 148.722 23.9318C148.899 22.8546 149.346 21.9165 150.062 21.1175C150.778 20.3126 151.675 19.6882 152.752 19.2443C153.829 18.7945 155.007 18.5696 156.286 18.5696C157.576 18.5696 158.668 18.7945 159.562 19.2443C160.461 19.6941 161.118 20.3215 161.532 21.1264C161.953 21.9254 162.092 22.8517 161.95 23.9052H158.78ZM180.689 28.1222C180.369 30.0516 179.739 31.697 178.798 33.0582C177.863 34.4136 176.72 35.4523 175.371 36.1744C174.027 36.8905 172.58 37.2486 171.03 37.2486C169.402 37.2486 168.005 36.8698 166.839 36.1122C165.673 35.3487 164.833 34.2567 164.318 32.8363C163.809 31.4158 163.72 29.7113 164.052 27.7227C164.371 25.7991 164.999 24.1538 165.934 22.7866C166.869 21.4194 168.014 20.3748 169.369 19.6527C170.725 18.9306 172.187 18.5696 173.755 18.5696C175.371 18.5696 176.756 18.9513 177.91 19.7148C179.07 20.4724 179.904 21.5644 180.413 22.9908C180.928 24.4171 181.02 26.1276 180.689 28.1222ZM177.448 27.7227C177.667 26.3791 177.647 25.2457 177.386 24.3224C177.132 23.3991 176.679 22.7037 176.028 22.2362C175.377 21.7627 174.575 21.5259 173.622 21.5259C172.592 21.5259 171.639 21.7834 170.763 22.2983C169.893 22.8073 169.153 23.553 168.544 24.5355C167.94 25.518 167.526 26.7135 167.301 28.1222C167.064 29.4716 167.079 30.605 167.345 31.5224C167.612 32.4397 168.073 33.1322 168.73 33.5998C169.387 34.0614 170.189 34.2923 171.136 34.2923C172.16 34.2923 173.107 34.0378 173.977 33.5288C174.847 33.0198 175.584 32.277 176.188 31.3004C176.797 30.3239 177.217 29.1313 177.448 27.7227ZM185.347 18.8182H189.378L192.6 31.9929H192.814L200.386 18.8182H204.417L201.398 37H198.238L200.315 24.5089H200.156L193.053 36.9467H190.701L187.753 24.4822H187.585L185.489 37H182.329L185.347 18.8182ZM222.705 28.1222C222.386 30.0516 221.755 31.697 220.814 33.0582C219.879 34.4136 218.737 35.4523 217.387 36.1744C216.044 36.8905 214.597 37.2486 213.046 37.2486C211.419 37.2486 210.022 36.8698 208.856 36.1122C207.69 35.3487 206.849 34.2567 206.335 32.8363C205.826 31.4158 205.737 29.7113 206.068 27.7227C206.388 25.7991 207.015 24.1538 207.95 22.7866C208.885 21.4194 210.031 20.3748 211.386 19.6527C212.741 18.9306 214.203 18.5696 215.772 18.5696C217.387 18.5696 218.772 18.9513 219.926 19.7148C221.087 20.4724 221.921 21.5644 222.43 22.9908C222.945 24.4171 223.037 26.1276 222.705 28.1222ZM219.465 27.7227C219.684 26.3791 219.663 25.2457 219.403 24.3224C219.148 23.3991 218.695 22.7037 218.044 22.2362C217.393 21.7627 216.591 21.5259 215.638 21.5259C214.609 21.5259 213.656 21.7834 212.78 22.2983C211.91 22.8073 211.17 23.553 210.56 24.5355C209.957 25.518 209.542 26.7135 209.317 28.1222C209.081 29.4716 209.096 30.605 209.362 31.5224C209.628 32.4397 210.09 33.1322 210.747 33.5998C211.404 34.0614 212.206 34.2923 213.153 34.2923C214.177 34.2923 215.124 34.0378 215.994 33.5288C216.864 33.0198 217.6 32.277 218.204 31.3004C218.814 30.3239 219.234 29.1313 219.465 27.7227ZM236.393 23.9052C236.416 23.0825 236.165 22.4522 235.638 22.0142C235.117 21.5762 234.369 21.3572 233.392 21.3572C232.705 21.3572 232.099 21.4608 231.572 21.668C231.051 21.8692 230.631 22.1503 230.311 22.5114C229.992 22.8665 229.793 23.2719 229.717 23.7276C229.651 24.1005 229.684 24.426 229.814 24.7042C229.944 24.9824 230.143 25.2191 230.409 25.4144C230.681 25.6097 230.989 25.7725 231.332 25.9027C231.681 26.0329 232.037 26.1424 232.398 26.2312L234.031 26.6573C234.682 26.8171 235.304 27.0331 235.896 27.3054C236.487 27.5717 236.999 27.915 237.431 28.3352C237.869 28.7495 238.189 29.2496 238.39 29.8356C238.591 30.4215 238.624 31.1081 238.488 31.8952C238.31 32.9606 237.881 33.8987 237.201 34.7095C236.526 35.5144 235.638 36.1448 234.537 36.6005C233.442 37.0503 232.167 37.2752 230.711 37.2752C229.302 37.2752 228.113 37.0562 227.142 36.6183C226.171 36.1744 225.461 35.5322 225.011 34.6918C224.567 33.8513 224.425 32.8304 224.585 31.6289H227.826C227.76 32.2622 227.864 32.7889 228.136 33.2092C228.414 33.6294 228.814 33.9431 229.335 34.1502C229.856 34.3574 230.459 34.4609 231.146 34.4609C231.862 34.4609 232.51 34.3544 233.09 34.1413C233.67 33.9223 234.144 33.6205 234.511 33.2358C234.883 32.8452 235.111 32.3894 235.194 31.8686C235.277 31.401 235.209 31.0104 234.99 30.6967C234.771 30.383 234.431 30.1226 233.969 29.9155C233.513 29.7024 232.969 29.513 232.335 29.3473L230.365 28.8146C228.938 28.424 227.855 27.8381 227.115 27.0568C226.381 26.2756 226.121 25.2339 226.334 23.9318C226.512 22.8546 226.958 21.9165 227.675 21.1175C228.391 20.3126 229.287 19.6882 230.365 19.2443C231.442 18.7945 232.62 18.5696 233.898 18.5696C235.188 18.5696 236.28 18.7945 237.174 19.2443C238.074 19.6941 238.73 20.3215 239.145 21.1264C239.565 21.9254 239.704 22.8517 239.562 23.9052H236.393Z" fill="#86F9FF"/>
</svg>
